<svg xmlns="http://www.w3.org/2000/svg" viewBox="0 0 96.185 59.945">
  <g>
    <g fill="#e6a0a2">
      <path d="M44.357 36.147a3.65 3.65 0 1 1-6.86 2.495 3.644 3.644 0 0 1 2.18-4.676 3.652 3.652 0 0 1 4.68 2.18m.667-14.806a3.65 3.65 0 0 1-4.853 1.766 3.646 3.646 0 0 1-1.765-4.85 3.65 3.65 0 0 1 4.85-1.767 3.655 3.655 0 0 1 1.768 4.85m10.922-10.006a3.656 3.656 0 0 1-4.68-2.185A3.652 3.652 0 0 1 53.45 4.47a3.648 3.648 0 0 1 4.677 2.181 3.651 3.651 0 0 1-2.181 4.682m14.804.644a3.652 3.652 0 0 1-1.767-4.852 3.652 3.652 0 0 1 6.62 3.085 3.652 3.652 0 0 1-4.852 1.767M80.76 22.906a3.653 3.653 0 0 1 2.183-4.683 3.646 3.646 0 0 1 4.677 2.184 3.643 3.643 0 0 1-2.179 4.676 3.652 3.652 0 0 1-4.681-2.177M54.385 47.068a3.654 3.654 0 0 1 1.768 4.855 3.648 3.648 0 0 1-4.853 1.761 3.646 3.646 0 0 1-1.765-4.85 3.652 3.652 0 0 1 4.85-1.766m14.804.65a3.652 3.652 0 0 1 4.682 2.182 3.65 3.65 0 0 1-2.186 4.677 3.646 3.646 0 0 1-4.675-2.18 3.648 3.648 0 0 1 2.179-4.68m10.924-10.012a3.653 3.653 0 0 1 4.855-1.766 3.652 3.652 0 0 1 1.762 4.852 3.646 3.646 0 0 1-4.848 1.767 3.65 3.65 0 0 1-1.769-4.853m-29.188-3.94a2.334 2.334 0 0 1-1.397 2.992 2.338 2.338 0 0 1-2.994-1.397 2.338 2.338 0 0 1 1.397-2.995 2.334 2.334 0 0 1 2.994 1.4m.414-9.48a2.338 2.338 0 0 1-3.106 1.133 2.336 2.336 0 0 1 1.974-4.235 2.333 2.333 0 0 1 1.132 3.102m6.994-6.407a2.339 2.339 0 0 1-2.998-1.393 2.336 2.336 0 0 1 1.397-2.996 2.336 2.336 0 0 1 1.6 4.389m9.473.417a2.337 2.337 0 0 1-1.13-3.109 2.331 2.331 0 0 1 3.103-1.124 2.33 2.33 0 0 1 1.13 3.101 2.338 2.338 0 0 1-3.103 1.132m6.41 6.99A2.334 2.334 0 0 1 78.6 23.69a2.332 2.332 0 0 1-1.393 2.993 2.335 2.335 0 0 1-2.994-1.396M57.332 40.754a2.335 2.335 0 0 1 1.13 3.107 2.334 2.334 0 0 1-3.105 1.127 2.332 2.332 0 0 1-1.128-3.103 2.33 2.33 0 0 1 3.103-1.131m9.473.413a2.34 2.34 0 0 1 2.996 1.398 2.334 2.334 0 0 1-1.398 2.994 2.334 2.334 0 0 1-2.992-1.397 2.334 2.334 0 0 1 1.394-2.995m6.992-6.408a2.336 2.336 0 0 1 4.235 1.974 2.334 2.334 0 0 1-3.104 1.134 2.338 2.338 0 0 1-1.131-3.109m-18.68-2.523a1.498 1.498 0 0 1-.894 1.918 1.494 1.494 0 0 1-1.917-.892 1.5 1.5 0 0 1 .893-1.92 1.5 1.5 0 0 1 1.918.894m.266-6.065a1.502 1.502 0 0 1-1.992.728 1.498 1.498 0 0 1-.718-1.99 1.495 1.495 0 0 1 2.71 1.262m4.47-4.098a1.499 1.499 0 0 1-1.916-.896 1.496 1.496 0 0 1 2.813-1.02 1.495 1.495 0 0 1-.897 1.916m6.067.267a1.5 1.5 0 0 1-.724-1.991 1.5 1.5 0 0 1 1.987-.724 1.498 1.498 0 0 1-1.263 2.715m4.1 4.473a1.496 1.496 0 0 1 .893-1.92 1.499 1.499 0 0 1 1.917.899 1.495 1.495 0 0 1-2.81 1.022m-10.802 9.899a1.496 1.496 0 0 1 .723 1.99 1.497 1.497 0 0 1-2.711-1.268 1.493 1.493 0 0 1 1.988-.722m6.063.267a1.488 1.488 0 0 1 1.915.889 1.494 1.494 0 1 1-2.807 1.025 1.488 1.488 0 0 1 .892-1.914m4.474-4.105a1.493 1.493 0 0 1 1.987-.721 1.492 1.492 0 0 1 .723 1.985 1.491 1.491 0 0 1-1.987.725 1.493 1.493 0 0 1-.723-1.99M57.8 31.26a.961.961 0 0 1-.573 1.23.96.96 0 0 1-1.227-.577.957.957 0 0 1 1.8-.653m.17-3.88a.96.96 0 0 1-1.273.464.955.955 0 0 1-.461-1.275.952.952 0 0 1 1.27-.461.956.956 0 0 1 .464 1.271m2.863-2.623a.955.955 0 0 1-1.226-.574.952.952 0 0 1 .572-1.226.957.957 0 0 1 .654 1.8m3.882.17a.957.957 0 0 1-.464-1.274.955.955 0 0 1 1.271-.463.96.96 0 0 1 .461 1.274.954.954 0 0 1-1.268.463m2.622 2.862a.957.957 0 1 1 1.8-.653.957.957 0 0 1-1.8.653m-6.912 6.337a.957.957 0 1 1-.81 1.734.96.96 0 0 1-.466-1.27.96.96 0 0 1 1.276-.464m3.878.17a.953.953 0 0 1 1.227.571.953.953 0 0 1-.572 1.225.953.953 0 0 1-1.226-.569.957.957 0 0 1 .57-1.226m2.866-2.625a.954.954 0 0 1 1.27-.464.95.95 0 0 1 .462 1.27.953.953 0 0 1-1.27.463.953.953 0 0 1-.462-1.269"/>
      <path d="M72.195 3.151c-3.123 0-5.488 2.77-5.488 5.65 0 3.07 2.393 5.65 5.651 5.65 3.014 0 5.598-2.553 5.598-5.567 0-3.151-2.499-5.733-5.761-5.733zm.054 14.451c-4.673 0-8.826-3.855-8.826-8.718C63.423 4.21 67.196 0 72.087 0c5.432 0 9.127 3.885 9.127 8.856 0 4.672-3.803 8.746-8.965 8.746m-2.01 27.895c-3.128 0-5.49 2.77-5.49 5.648 0 3.07 2.39 5.648 5.652 5.648 3.015 0 5.596-2.55 5.596-5.567 0-3.151-2.501-5.729-5.758-5.729zm.052 14.448c-4.673 0-8.828-3.856-8.828-8.718 0-4.672 3.775-8.885 8.667-8.885 5.43 0 9.126 3.888 9.126 8.859 0 4.672-3.802 8.744-8.965 8.744m22.662-42.848v1.05h.492c.528 0 .777-.132.777-.504 0-.392-.249-.546-.793-.546zm1.869.482c0 .453-.26.764-.704.859l.687 1.45h-.65l-.626-1.359h-.576v1.359h-.583v-3.184h1.164c.863 0 1.288.3 1.288.875zm.328-.943a2.263 2.263 0 0 0-1.684-.726c-.635 0-1.217.243-1.646.695a2.527 2.527 0 0 0-.72 1.747c0 .638.25 1.238.698 1.706.445.467 1.04.727 1.647.727.642 0 1.223-.25 1.692-.719a2.363 2.363 0 0 0 .688-1.692c0-.678-.234-1.285-.675-1.738zm.252-.258a2.852 2.852 0 0 1 .784 1.974c0 .772-.278 1.456-.794 1.973-.534.536-1.222.832-1.934.832-.723 0-1.397-.296-1.92-.841a2.806 2.806 0 0 1-.794-1.964c0-.74.297-1.46.825-2.011a2.553 2.553 0 0 1 1.889-.797c.742 0 1.422.29 1.944.834"/>
    </g>
    <path fill="#ba2025" d="M46.376 37.496v-.064c0-2.98-2.274-5.447-5.498-5.447-3.293 0-5.396 2.436-5.396 5.383v.064c0 2.949 2.271 5.445 5.462 5.445 3.328 0 5.432-2.466 5.432-5.381zm-14.277 0v-.064c0-4.84 3.765-8.845 8.845-8.845 5.079 0 8.813 3.943 8.813 8.781v.064c0 4.805-3.765 8.811-8.875 8.811-5.05 0-8.783-3.943-8.783-8.747m-6.955 1.28c-.992-.385-2.37-.672-3.876-.672-2.435 0-3.875.997-3.875 2.625v.065c0 1.604 1.44 2.5 3.267 2.5 2.564 0 4.484-1.44 4.484-3.555zm.203 7.08v-2.08c-1.154 1.376-2.917 2.434-5.479 2.434-3.204 0-6.022-1.826-6.022-5.224v-.063c0-3.749 2.916-5.541 6.854-5.541 2.052 0 3.366.289 4.677.704v-.32c0-2.337-1.473-3.617-4.163-3.617-1.89 0-3.3.41-4.837 1.055l-1.059-3.108c1.86-.833 3.685-1.408 6.44-1.408 4.997 0 7.435 2.624 7.435 7.142v10.026h-3.846m-23.2-4.675v-8.906H0v-3.333h2.147v-4.644h3.878v4.645h4.548v3.333H6.025v8.297c0 1.504.768 2.112 2.08 2.112a5.24 5.24 0 0 0 2.402-.574v3.17c-.958.545-2.048.865-3.492.865-2.85 0-4.868-1.253-4.868-4.964"/>
  </g>
</svg>
