<svg xmlns="http://www.w3.org/2000/svg" width="146.688" height="91.412">
	<!--this is the logo that used in all generated readme files, which means if you change this it wiill change everywhere -->
  <path fill="#E89FA6" d="M67.647 55.12a5.566 5.566 0 1 1-10.462 3.804 5.557 5.557 0 0 1 3.323-7.13 5.569 5.569 0 0 1 7.139 3.325M68.664 32.538a5.567 5.567 0 0 1-7.401 2.694 5.56 5.56 0 0 1-2.693-7.398 5.565 5.565 0 0 1 7.396-2.694 5.574 5.574 0 0 1 2.698 7.398M85.32 17.277a5.576 5.576 0 0 1-7.137-3.332 5.569 5.569 0 0 1 3.331-7.134 5.564 5.564 0 0 1 7.132 3.326 5.568 5.568 0 0 1-3.326 7.14M107.897 18.26a5.57 5.57 0 0 1-2.695-7.4 5.57 5.57 0 0 1 10.096 4.704 5.57 5.57 0 0 1-7.4 2.695M123.162 34.926a5.571 5.571 0 0 1 3.33-7.141 5.56 5.56 0 0 1 7.132 3.33 5.556 5.556 0 0 1-3.323 7.131 5.57 5.57 0 0 1-7.139-3.32M82.939 71.774a5.573 5.573 0 0 1 2.696 7.405 5.563 5.563 0 0 1-7.4 2.686 5.561 5.561 0 0 1-2.692-7.396 5.569 5.569 0 0 1 7.396-2.695M105.516 72.765a5.569 5.569 0 0 1 7.14 3.328c1.054 2.888-.444 6.082-3.333 7.133a5.56 5.56 0 0 1-7.13-3.323 5.563 5.563 0 0 1 3.323-7.138M122.176 57.496a5.571 5.571 0 0 1 7.404-2.694 5.57 5.57 0 0 1 2.687 7.4 5.561 5.561 0 0 1-7.394 2.694 5.566 5.566 0 0 1-2.697-7.4M77.662 51.486a3.56 3.56 0 0 1-2.13 4.564 3.565 3.565 0 0 1-4.566-2.13 3.566 3.566 0 0 1 2.13-4.568 3.56 3.56 0 0 1 4.566 2.134M78.294 37.03a3.566 3.566 0 0 1-4.736 1.727 3.563 3.563 0 0 1 3.01-6.458 3.558 3.558 0 0 1 1.726 4.731M88.96 27.258a3.567 3.567 0 0 1-4.572-2.124 3.563 3.563 0 0 1 2.131-4.569 3.563 3.563 0 0 1 2.44 6.693M103.405 27.894a3.564 3.564 0 0 1-1.722-4.74 3.555 3.555 0 0 1 4.732-1.715 3.553 3.553 0 0 1 1.724 4.73 3.565 3.565 0 0 1-4.734 1.725M113.18 38.556a3.56 3.56 0 0 1 6.69-2.435 3.557 3.557 0 0 1-2.124 4.564 3.561 3.561 0 0 1-4.567-2.129M87.434 62.145a3.561 3.561 0 0 1 1.722 4.739 3.56 3.56 0 0 1-4.735 1.718 3.556 3.556 0 0 1-1.72-4.731 3.554 3.554 0 0 1 4.733-1.726M101.88 62.775a3.57 3.57 0 0 1 4.57 2.132 3.56 3.56 0 0 1-2.133 4.567 3.56 3.56 0 0 1-4.562-2.131 3.56 3.56 0 0 1 2.125-4.568M112.543 53.003a3.563 3.563 0 0 1 6.459 3.011 3.56 3.56 0 0 1-4.734 1.728 3.565 3.565 0 0 1-1.725-4.74M84.056 49.154a2.284 2.284 0 0 1-1.364 2.925 2.279 2.279 0 0 1-2.923-1.36 2.288 2.288 0 0 1 1.362-2.93 2.287 2.287 0 0 1 2.925 1.365M84.461 39.904a2.29 2.29 0 0 1-3.037 1.11 2.285 2.285 0 0 1-1.096-3.034 2.28 2.28 0 0 1 4.133 1.924M91.279 33.655a2.286 2.286 0 0 1-2.922-1.366 2.282 2.282 0 0 1 4.289-1.557 2.28 2.28 0 0 1-1.367 2.923M100.53 34.062a2.287 2.287 0 0 1-1.103-3.037 2.288 2.288 0 0 1 3.03-1.104 2.284 2.284 0 0 1-1.927 4.141M106.784 40.884a2.281 2.281 0 0 1 1.362-2.928 2.286 2.286 0 0 1 2.923 1.37 2.28 2.28 0 0 1-4.285 1.559M90.31 55.981a2.282 2.282 0 0 1 1.102 3.034 2.283 2.283 0 0 1-4.134-1.933 2.277 2.277 0 0 1 3.032-1.1M99.556 56.389a2.269 2.269 0 0 1 2.92 1.355 2.278 2.278 0 1 1-4.28 1.564 2.27 2.27 0 0 1 1.36-2.919M106.38 50.128a2.277 2.277 0 0 1 3.03-1.1 2.275 2.275 0 0 1 1.102 3.028 2.274 2.274 0 0 1-3.03 1.105 2.277 2.277 0 0 1-1.102-3.033M88.147 47.665a1.466 1.466 0 0 1-.874 1.875 1.464 1.464 0 0 1-1.87-.879 1.459 1.459 0 0 1 2.743-.996M88.406 41.747a1.464 1.464 0 0 1-1.94.709 1.457 1.457 0 0 1-.704-1.944 1.452 1.452 0 0 1 1.936-.704 1.458 1.458 0 0 1 .708 1.939M92.773 37.746a1.457 1.457 0 0 1-1.87-.875c-.279-.756.11-1.594.872-1.869a1.46 1.46 0 0 1 .998 2.744M98.693 38.005a1.459 1.459 0 0 1-.708-1.943 1.457 1.457 0 0 1 1.939-.706c.73.344 1.043 1.21.703 1.944a1.455 1.455 0 0 1-1.934.705M102.692 42.37a1.46 1.46 0 1 1 2.744-.995 1.46 1.46 0 0 1-2.744.995M92.151 52.035a1.46 1.46 0 1 1-1.236 2.644 1.465 1.465 0 0 1-.71-1.938 1.465 1.465 0 0 1 1.946-.706M98.064 52.295c.76-.279 1.597.11 1.872.87a1.453 1.453 0 0 1-.872 1.867 1.453 1.453 0 0 1-1.87-.867 1.46 1.46 0 0 1 .87-1.87M102.434 48.292a1.455 1.455 0 0 1 1.937-.707 1.45 1.45 0 0 1 .705 1.936 1.453 1.453 0 0 1-1.937.707 1.454 1.454 0 0 1-.705-1.936"/>
  <path fill="#E89FA6" d="M110.098 4.8c-4.763 0-8.369 4.223-8.369 8.617 0 4.68 3.649 8.616 8.618 8.616 4.597 0 8.537-3.894 8.537-8.49 0-4.806-3.811-8.743-8.786-8.743zm.082 22.038c-7.126 0-13.46-5.879-13.46-13.296 0-7.127 5.755-13.548 13.214-13.548 8.283 0 13.919 5.925 13.919 13.506 0 7.125-5.8 13.338-13.673 13.338M107.115 69.379c-4.77 0-8.373 4.223-8.373 8.613 0 4.683 3.646 8.614 8.62 8.614 4.598 0 8.534-3.889 8.534-8.49 0-4.806-3.814-8.737-8.781-8.737zm.08 22.033c-7.127 0-13.464-5.88-13.464-13.295 0-7.124 5.758-13.55 13.218-13.55 8.282 0 13.917 5.929 13.917 13.51 0 7.125-5.798 13.336-13.672 13.336M141.755 26.067v1.603h.75c.806 0 1.185-.202 1.185-.77 0-.597-.379-.833-1.209-.833h-.726zm2.85.735c0 .692-.395 1.166-1.073 1.31l1.048 2.212h-.993l-.953-2.072h-.879v2.072h-.889v-4.856h1.775c1.317 0 1.964.459 1.964 1.334zm.501-1.438a3.451 3.451 0 0 0-2.569-1.106c-.968 0-1.856.37-2.51 1.06-.706.737-1.098 1.685-1.098 2.664 0 .973.381 1.887 1.064 2.601.68.712 1.587 1.109 2.512 1.109.979 0 1.865-.38 2.581-1.096.68-.678 1.049-1.592 1.049-2.581 0-1.034-.357-1.96-1.029-2.651zm.384-.393a4.35 4.35 0 0 1 1.196 3.011c0 1.177-.424 2.22-1.211 3.008-.815.818-1.864 1.27-2.95 1.27-1.103 0-2.13-.452-2.928-1.284a4.279 4.279 0 0 1-1.21-2.994c0-1.13.453-2.226 1.258-3.068.762-.797 1.761-1.215 2.88-1.215 1.132 0 2.169.442 2.965 1.272"/>
  <path fill="#bf1b2c" d="M70.725 57.177v-.098c0-4.544-3.467-8.307-8.384-8.307-5.022 0-8.23 3.716-8.23 8.21v.097c0 4.497 3.464 8.304 8.33 8.304 5.076 0 8.284-3.76 8.284-8.206zm-21.772 0v-.098c0-7.38 5.741-13.488 13.488-13.488 7.746 0 13.44 6.012 13.44 13.391v.097c0 7.328-5.741 13.438-13.534 13.438-7.703 0-13.394-6.013-13.394-13.34M38.345 59.13c-1.512-.588-3.613-1.026-5.91-1.026-3.714 0-5.91 1.52-5.91 4.003v.1c0 2.445 2.196 3.812 4.983 3.812 3.91 0 6.837-2.197 6.837-5.422V59.13zm.31 10.796v-3.173c-1.76 2.1-4.448 3.713-8.355 3.713-4.887 0-9.184-2.784-9.184-7.966v-.097c0-5.717 4.446-8.45 10.453-8.45 3.128 0 5.132.44 7.132 1.073v-.486c0-3.566-2.247-5.518-6.349-5.518-2.881 0-5.032.626-7.376 1.61l-1.615-4.741c2.836-1.27 5.62-2.147 9.822-2.147 7.62 0 11.337 4.002 11.337 10.892v15.29h-5.865M3.274 62.797V49.215H0v-5.083h3.274V37.05h5.914v7.083h6.936v5.083H9.188v12.653c0 2.294 1.171 3.222 3.172 3.222 1.322 0 2.494-.295 3.664-.876v4.834c-1.462.831-3.123 1.32-5.326 1.32-4.345 0-7.424-1.911-7.424-7.571"/>
</svg>
